<svg width="757" height="240" viewBox="0 0 757 240" fill="none" xmlns="http://www.w3.org/2000/svg">
<path fill-rule="evenodd" clip-rule="evenodd" d="M620.592 51.513L620.535 51.4842C626.072 45.3705 632.214 38.8819 638.645 32.624C630.83 28.7885 623.62 24.405 616.641 20.1947C601.501 11.0529 587.486 2.57446 570.904 1.42093C558.042 0.613459 545.151 2.77633 533.212 7.70768C533.212 7.70768 526.752 -1.14568 506.883 1.70931C487.013 4.5643 425.818 30.4322 373.65 114.698C326.499 190.888 348.647 234.55 382.532 234.088C419.243 233.569 454.138 192.33 465.961 158.33C477.814 124.33 463.827 115.13 453.1 115.995C441.247 117.005 420.282 127.675 408.746 151.265C397.211 174.854 397.211 189.36 397.211 189.36C401.912 184.371 407.045 179.786 412.524 175.662C417.455 171.769 422.906 168.568 428.702 166.145C430.058 160.06 432.076 154.12 434.701 148.496C438.882 139.701 445.486 130.559 453.648 128.511C470.201 124.33 462.27 154.841 450.1 174.739C443.554 185.352 420.339 216.093 400.412 216.093C380.485 216.093 376.649 196.685 380.86 178.459C385.041 160.233 390.866 137.192 420.022 95.2319C449.149 53.2722 480.669 28.3847 498.923 17.9741C517.668 7.24626 525.282 11.9469 525.282 11.9469C525.282 11.9469 501.346 26.7986 487.734 44.7072C474.728 61.8371 466.942 81.0723 472.998 90.5312C478.766 99.5288 499.01 99.7018 521.331 67.1434C543.363 34.9887 537.826 15.8978 537.826 15.8978C539.268 15.4075 540.768 15.0614 542.268 14.7731C553.024 13.3311 561.618 16.215 574.941 23.1073C581.43 26.4814 587.803 30.7783 594.609 35.3924C602.424 40.6698 610.787 46.351 620.592 51.4265L620.563 51.4554H620.592V51.513ZM530.271 18.4355C530.271 18.4355 516.082 24.1455 499.587 42.5443C483.091 60.9143 473.459 81.6202 480.582 87.0706C483.322 89.147 489.609 89.5219 501.057 79.1113C511.612 69.8542 519.889 58.2324 525.253 45.1974C532.203 28.0387 530.53 19.6179 530.3 18.5509C530.271 18.4644 530.271 18.4355 530.271 18.4355Z" fill="#EAEAE9" fill-opacity="0.5"/>
<path d="M649.345 61.9236C688.103 69.6811 722.046 45.4281 740.099 24.751C746.674 17.3684 752.355 9.17837 756.969 0.38269C748.75 9.03418 739.551 16.6763 729.573 23.1649L729.457 23.1361C712.645 34.037 689.372 43.8997 667.022 41.7368C661.37 47.6486 655.314 54.4833 649.287 61.9236H649.345Z" fill="#EAEAE9" fill-opacity="0.5"/>
<path fill-rule="evenodd" clip-rule="evenodd" d="M662.985 201.155C659.755 206.346 656.121 216.324 666.734 210.124C679.654 202.568 698.081 174.249 698.081 174.249H706.416C698.802 186.072 690.353 197.319 681.096 207.874C668.003 222.553 651.998 235.876 640.751 234.578C627.6 233.021 631.724 215.574 631.724 215.574C631.724 215.574 612.835 235.761 599.858 234.377C582.267 232.416 587.631 210.441 587.631 210.441C587.631 210.441 567.675 235.098 554.178 234.348C532.924 233.108 538.288 206.923 544.171 188.581C547.343 178.748 550.256 171.019 550.256 171.019C550.256 171.019 548.151 171.567 543.594 172.259C541.23 172.605 536.933 172.836 536.933 172.836C532.059 181.516 526.753 189.966 521.014 198.098C513.949 207.586 483.899 240.26 466.164 233.713C449.784 227.657 455.205 202.337 464.751 182.15C478.651 152.822 517.784 110.66 540.336 116.197C563.724 121.936 540.855 165.049 540.855 165.049C540.855 165.049 540.855 165.194 541.114 165.309C542.585 165.568 544.114 165.482 545.556 165.049C548.468 164.444 551.352 163.579 554.121 162.483C554.121 162.483 577.624 112.737 603.607 80.1783C629.59 47.6199 681.441 -8.35522 701.772 5.19877C706.733 8.54401 704.483 20.0217 697.793 33.9505C694.765 34.9022 691.708 35.7385 688.622 36.373C692.342 30.1439 695.14 23.4246 696.957 16.388C700.013 -0.424691 661.168 35.0176 633.397 73.1706C616.7 96.1547 601.877 120.465 589.044 145.872C594.061 142.786 598.849 139.354 603.376 135.548C615.748 125.166 627.543 114.063 638.646 102.297C649.287 91.1945 659.294 79.4862 668.551 67.2011C671.521 67.0569 674.492 66.7685 677.433 66.2783C667.282 80.1783 656.237 93.3862 644.327 105.816C643.346 106.796 642.366 107.805 641.356 108.815C631.119 119.168 620.333 130.097 610.817 138.201C601.531 146.218 591.754 153.629 581.517 160.349C581.517 160.349 557.12 209.835 570.443 213.007C578.201 214.882 593.542 191.033 593.542 191.033C593.542 191.033 613.498 160.176 625.611 146.218C641.991 127.387 656.15 116.543 670.223 116.255C678.471 116.111 683.345 124.993 683.345 124.993L687.209 118.908H711.087C711.087 118.908 666.503 195.387 662.927 201.126L662.985 201.155ZM677.952 133.529C678.24 133.01 678.471 132.462 678.673 131.885C678.558 130.991 678.154 130.155 677.491 129.549C676.856 128.915 675.991 128.54 675.126 128.482C671.435 128.309 666.388 129.03 653.209 143.796C642.25 156.023 632.82 169.577 625.149 184.14C617.594 198.098 614.537 208.509 618.862 211.191C620.276 211.912 621.891 212.085 623.419 211.652C626.36 210.931 629.677 208.163 634.781 202.222C636.685 200.001 638.761 197.031 641.126 193.628L641.154 193.599C641.731 192.763 642.337 191.898 642.942 191.033C651.652 178.978 673.626 141.142 677.952 133.529ZM540.797 149.563C543.018 143.738 545.815 132.318 539.961 127.819C533.674 123.061 517.784 134.221 517.64 145.757C517.496 157.292 528.887 162.829 531.598 163.55C533.155 163.982 533.674 163.925 534.424 162.656C536.846 158.445 538.952 154.091 540.768 149.621V149.563H540.797ZM528.714 170.961C524.763 169.116 521.072 166.722 517.727 163.867C514.381 161.041 511.584 157.609 509.45 153.745C509.277 153.428 509.075 153.629 508.873 153.86C508.844 153.918 508.787 153.947 508.758 154.004C508.498 154.264 507.518 155.244 499.011 167.847C490.446 180.507 477.411 206.605 489.263 211.046C496.848 213.901 509.479 200.463 516.371 191.581C521.072 185.38 525.311 178.834 529.089 172.028C529.435 171.307 529.089 171.134 528.714 170.961Z" fill="#EAEAE9" fill-opacity="0.5"/>
<path d="M394.24 60.6836H371.545L358.712 81.649H381.407L394.24 60.6836Z" fill="#EAEAE9" fill-opacity="0.5"/>
<path fill-rule="evenodd" clip-rule="evenodd" d="M340.947 118.072H349.195C349.195 118.072 307.495 178.978 283.934 176.181C270.784 174.624 274.677 158.243 274.677 158.243C274.677 158.243 256.163 180.103 239.206 175.719C223.806 171.74 233.755 145.901 233.755 145.901C233.496 146.016 232.515 146.939 230.987 148.438C222.249 156.917 195.199 183.189 175.329 175.431C150.932 165.886 163.563 134.135 168.206 124.589C172.157 116.543 176.511 108.699 176.511 108.699C176.511 108.699 172.762 109.766 170.427 110.314C168.091 110.862 164.544 111.554 164.544 111.554C164.544 111.554 152.979 130.588 145.885 140.075C138.82 149.563 108.713 182.179 91.006 175.691C73.2993 169.202 77.7114 144.142 87.6318 124.128C103.781 91.8577 142.107 52.1762 165.236 58.1458C188.393 64.1153 169.244 102.355 169.244 102.355C169.244 102.355 173.887 102.96 184.99 95.2895C189.575 92.1461 194.593 87.4455 199.928 82.4564C213.251 69.9983 228.622 55.5791 244.887 58.0592C255.615 59.703 265.622 70.8346 251.952 91.9731C247.511 98.6924 240.215 104.835 234.592 98.8366C231.102 95.1453 234.159 88.3106 237.822 83.6388C239.264 81.7355 241.138 80.2359 243.301 79.2265C245.464 78.246 247.828 77.7846 250.193 77.9288C250.193 77.9288 253.971 69.162 244.368 69.335C236.582 69.4792 216.885 87.7915 205.782 106.306C195.718 123.349 180.318 152.332 195.718 158.647C209.935 164.444 236.985 132.001 249.501 114.986C262.017 97.9714 290.538 59.4146 314.503 57.8862C322.75 57.3383 327.653 64.9516 327.653 64.9516L330.421 60.4817H354.328C354.328 60.4817 309.312 136.672 305.793 142.382C303.025 146.852 299.334 157.003 309.542 151.351C319.693 145.699 340.947 118.072 340.947 118.072ZM286.731 133.241C296.392 119.802 323.068 72.9398 323.068 72.9398C322.952 72.0458 322.549 71.2095 321.885 70.6039C321.222 69.9983 320.415 69.5946 319.521 69.508C315.829 69.335 309.716 70.5751 297.344 86.0612C284.972 101.519 275.744 113.832 268.881 126.637C261.296 140.594 257.98 150.457 262.334 153.139C263.747 153.86 265.362 154.033 266.891 153.6C269.717 152.88 273.437 150.025 278.512 144.113C280.906 141.344 283.617 137.624 286.789 133.269H286.731V133.241ZM164.918 69.8253C158.632 65.0381 142.742 76.2274 142.598 87.7627C142.453 99.298 157.017 102.874 158.891 102.96C159.324 103.076 159.756 103.047 160.16 102.874C160.564 102.701 160.91 102.413 161.112 102.038C162.813 98.6636 164.342 95.203 165.697 91.6558C167.918 85.8305 170.686 74.4105 164.861 69.9118L164.918 69.8253ZM155.373 110.228C151.047 108.872 146.895 106.94 143.059 104.518C139.31 102.066 136.253 98.6924 134.177 94.6839C133.975 94.3378 133.773 94.5974 133.571 94.8281C133.542 94.8569 133.514 94.8857 133.485 94.9434C133.254 95.1741 131.985 96.9044 123.449 109.564C114.913 122.224 102.253 148.15 114.105 152.591C121.69 155.446 134.436 141.979 141.329 133.068C146.52 126.118 151.336 118.879 155.719 111.381C156.007 110.631 155.719 110.43 155.286 110.314L155.373 110.228Z" fill="#EAEAE9" fill-opacity="0.5"/>
<path d="M327.912 240C310.263 227.657 289.153 221.428 267.726 222.264C261.93 222.409 256.249 223.966 251.144 226.763C246.04 229.561 241.657 233.54 238.369 238.356C229.227 222.236 211.175 212.344 183.259 212.575C159.612 212.834 136.08 218.746 113.932 224.312C93.8027 229.359 74.8272 234.117 57.9856 234.088C23.9564 234.088 -0.815755 212.488 0.0205556 174.133C1.49131 106.911 57.6684 46.3798 99.8011 19.0699C123.939 3.38188 144.154 -1.23225 157.449 0.26734C167.11 1.33436 178.703 12.6101 171.378 29.221C160.621 53.5317 145.769 51.513 146.317 39.8911C146.548 36.8631 147.5 33.9216 149.057 31.355C150.643 28.7596 152.777 26.5967 155.344 25.0106C158.055 23.511 161.111 22.7324 164.226 22.7612C166.446 20.9444 167.975 7.64994 150.672 12.0334C133.369 16.4168 112.317 33.6044 92.4474 55.781C72.5778 77.9577 41.6632 119.889 34.021 163.896C30.4451 184.313 32.8385 221.543 80.5947 221.14C99.0224 220.996 121.43 215.343 145.539 209.258C174.55 201.962 206.041 194.003 236.091 194.234C255.24 194.147 274.071 199.367 290.509 209.287C304.755 218.256 321.798 231.06 327.854 239.913L327.912 240Z" fill="#EAEAE9" fill-opacity="0.5"/>
</svg>
