<svg width="646" height="208" viewBox="0 0 646 208" fill="none" xmlns="http://www.w3.org/2000/svg">
<path d="M0.00890224 98.694C-0.00296741 65.8134 -0.00296741 32.9366 0.00890224 0.0560107C29.675 0.0873763 59.3491 0.0756177 89.0349 0.0677763C95.2229 0.107084 101.296 2.76562 105.649 7.10493C119.358 20.9397 119.46 45.8839 105.462 59.5616C100.908 64.1051 94.5147 66.5516 88.0813 66.5909C76.2434 66.7755 64.4015 66.6184 52.5596 66.6694C44.8206 58.8037 36.872 51.1461 29.1211 43.3039C49.1016 43.3117 69.09 43.2607 89.0705 43.3314C93.0429 39.9346 92.7422 34.1226 92.2239 29.4298C91.8678 26.9754 91.0132 23.4805 88.0062 23.2645C66.4629 23.1388 44.9037 23.2842 23.3604 23.1859C23.2813 48.3462 23.301 73.522 23.3485 98.6822C15.5621 98.6822 7.78349 98.6626 0.00890224 98.694Z" fill="#EAEAE9" fill-opacity="0.5"/>
<path d="M236.718 0.046574C245.051 0.093723 253.395 0.0661783 261.739 0.0661783C268.766 19.5323 275.753 39.0101 282.654 58.5076C289.182 39.9054 295.734 21.3269 302.214 2.70511C302.752 1.65658 302.851 -0.416875 304.608 0.0740169C312.366 0.0348099 320.13 0.105485 327.893 0.046574C334.804 19.4851 341.736 38.9198 348.688 58.3623C355.876 38.963 362.88 19.5008 369.942 0.0740169C378.223 0.0544134 386.513 0.093723 394.789 0.046574C382.924 32.935 370.951 65.7725 359.074 98.6689C352.28 98.6807 345.494 98.7003 338.701 98.661C331.133 77.6045 323.505 56.5637 315.9 35.5151C308.212 56.5363 300.672 77.6202 293.047 98.6689C286.202 98.6807 279.362 98.661 272.517 98.6807C260.552 65.8118 248.667 32.9154 236.718 0.046574Z" fill="#EAEAE9" fill-opacity="0.5"/>
<path d="M399.271 98.6925C399.283 65.8119 399.271 32.9351 399.283 0.0544426C432.87 0.0740461 466.473 0.0937529 500.064 0.046604C500.044 7.77099 500.025 15.4875 500.052 23.2237C474.24 23.1961 448.431 23.2433 422.615 23.1961C422.587 28.0146 422.595 32.8448 422.575 37.675C446.683 37.7064 470.778 37.6868 494.873 37.6868C494.861 45.4818 494.85 53.2769 494.861 61.0719C470.778 61.0719 446.691 61.0523 422.595 61.0719C422.595 65.8904 422.575 70.7087 422.603 75.5311C448.431 75.5428 474.24 75.5232 500.064 75.5428C500.044 83.2594 500.037 90.9524 500.064 98.6689C466.461 98.6925 432.87 98.6414 399.271 98.6925Z" fill="#EAEAE9" fill-opacity="0.5"/>
<path d="M509.69 0.0661784C538.62 0.085782 567.563 0.0740198 596.497 0.0661784C601.648 -0.0634058 607.009 -0.110562 611.789 2.1161C620.481 5.97628 626.052 14.7884 628.045 23.7931C630.404 35.0163 628.802 47.6494 621.391 56.7797C617.244 62.2264 610.787 65.8432 603.923 66.3615C599.978 66.5658 596.017 66.3812 592.085 66.4401C601.826 77.1804 611.579 87.9207 621.312 98.6689C610.59 98.7121 599.855 98.6414 589.126 98.6807C572.58 80.1845 555.93 61.7787 539.373 43.3023C559.404 43.2591 579.44 43.3494 599.479 43.2512C603.06 43.4279 605.05 39.7366 605.347 36.6539C605.691 32.778 605.889 28.3994 603.527 25.0811C602.38 23.4396 600.255 23.153 598.416 23.1961C576.611 23.2354 554.822 23.2039 533.034 23.2236C532.97 48.3877 533.022 73.548 533.002 98.7003C525.228 98.6532 517.441 98.6807 509.666 98.6689C509.73 65.8039 509.678 32.935 509.69 0.0661784Z" fill="#EAEAE9" fill-opacity="0.5"/>
<path d="M510.845 109.395C544.388 109.407 577.927 109.407 611.479 109.395C611.518 117.084 611.466 124.769 611.499 132.439C585.702 132.454 559.893 132.407 534.089 132.454C534.057 137.285 534.05 142.127 534.081 146.965C551.609 146.996 569.124 147.016 586.651 146.965C593.148 146.988 599.648 146.996 606.157 146.976C606.157 154.772 606.145 162.567 606.157 170.362C585.959 170.409 565.749 170.263 545.551 170.432C541.725 170.401 537.895 170.354 534.081 170.362C534.041 175.263 533.93 180.159 533.899 185.068C559.716 184.919 585.544 184.962 611.36 185.021C611.499 192.679 611.242 200.336 611.545 207.982C577.955 207.982 544.364 207.97 510.773 207.982C511.014 175.121 510.745 142.264 510.845 109.395Z" fill="#EAEAE9" fill-opacity="0.5"/>
<path d="M291.981 137.65C291.665 142.924 291.91 148.213 291.882 153.503C315.194 153.554 338.51 153.554 361.829 153.495C361.632 147.899 362.249 142.252 361.478 136.68C361.157 134.01 358.688 132.074 355.986 132.439C336.164 132.486 316.33 132.348 296.507 132.513C293.703 132.29 292.021 135.188 291.981 137.65ZM269.496 130.986C272.273 119.939 281.821 109.918 293.757 109.415C315.087 109.336 336.42 109.277 357.746 109.297C359.757 109.317 361.775 109.348 363.753 109.808C376.429 113.098 385.146 125.732 385.086 138.506C385.079 161.644 385.079 184.793 385.079 207.935C377.359 207.963 369.644 207.896 361.941 207.994C361.696 197.544 361.893 187.102 361.814 176.645C338.498 176.555 315.187 176.657 291.882 176.598C291.812 187.051 291.882 197.497 291.843 207.955C284.088 207.935 276.341 207.955 268.586 207.943C268.558 199.531 268.685 191.116 268.487 182.712C268.558 170.491 268.507 158.267 268.515 146.034C268.586 141.008 268.123 135.895 269.496 130.986Z" fill="#EAEAE9" fill-opacity="0.5"/>
<path d="M417.324 132.455C417.273 149.941 417.273 167.428 417.324 184.911C434.839 184.872 452.348 184.892 469.867 184.911C472.716 184.884 476.008 184.511 477.934 182.143C479.628 180.207 479.482 177.462 479.561 175.066C479.509 163.823 479.521 152.592 479.561 141.353C479.482 139.24 479.521 136.865 477.998 135.215C476.075 132.753 472.724 132.396 469.824 132.419C452.316 132.466 434.82 132.407 417.324 132.455ZM393.851 109.309C407.857 109.278 421.863 109.317 435.869 109.278C445.001 109.505 454.128 109.376 463.256 109.407C469.353 109.446 475.659 108.885 481.539 110.946C493.088 114.657 502.18 125.468 502.826 137.642C503.229 146.977 502.865 156.331 502.984 165.681C502.841 172.973 503.743 180.564 501.163 187.574C499.2 193.668 494.584 198.294 489.955 202.496C488.214 203.78 486.275 204.813 484.297 205.626C475.078 208.897 465.234 207.778 455.659 207.943C435.057 207.912 414.452 207.994 393.851 207.896C393.818 175.035 393.811 142.166 393.851 109.309Z" fill="#EAEAE9" fill-opacity="0.5"/>
<path d="M149.515 23.8715C146.096 25.03 144.696 28.7017 144.807 32.0318C144.783 43.2512 144.818 54.4745 144.791 65.7057C144.803 68.5921 145.127 72.0164 147.719 73.8346C150.053 75.4329 153.064 75.5036 155.806 75.5507C172.487 75.5232 189.156 75.5428 205.833 75.5428C208.713 75.5036 211.933 75.2286 214.157 73.1866C216.111 71.231 216.219 68.3329 216.143 65.7647C216.072 54.2271 216.136 42.6818 216.111 31.1483C216.175 28.7607 215.364 26.1689 213.278 24.814C211.134 23.2236 208.345 23.2236 205.801 23.1843C190.073 23.2432 174.359 23.2119 158.647 23.2039C155.604 23.2628 152.458 22.8898 149.515 23.8715ZM145.93 0.831879C150.409 -0.240182 155.042 0.0936822 159.604 0.0739782C174.042 0.0739782 188.487 0.0739782 202.921 0.0739782C206.98 0.0936822 211.103 -0.181268 215.09 0.800517C222.944 2.52834 229.928 7.44892 234.525 13.948C238.197 19.2298 239.732 25.7093 239.685 32.0593C239.621 44.233 239.74 56.4066 239.621 68.5803C239.486 76.3478 236.286 84.0409 230.569 89.4051C224.582 95.3741 216.123 98.712 207.649 98.6806C189.425 98.6688 171.205 98.6806 152.993 98.6806C144.554 98.6414 136.233 95.1778 130.338 89.1852C124.514 83.6324 121.42 75.6175 121.476 67.6496C121.522 54.883 121.4 42.1202 121.53 29.3614C121.744 15.7152 132.732 3.69862 145.93 0.831879Z" fill="#EAEAE9" fill-opacity="0.5"/>
<path d="M632.983 195.801C632.983 194.937 632.991 193.205 632.991 192.345C634.368 192.738 636.425 192.6 636.413 194.544C635.595 195.624 634.142 195.514 632.983 195.801ZM637.328 197.882C638.661 196.398 640.124 194.356 638.898 192.325C637.216 189.074 632.876 190.527 629.944 190.173C629.877 194.316 629.904 198.459 629.904 202.614C630.649 202.622 632.14 202.622 632.896 202.622C632.936 200.847 633.054 199.08 633.24 197.321C634.466 198.942 635.523 200.686 636.287 202.594C637.137 202.594 638.847 202.614 639.709 202.622C638.898 201.032 638.107 199.461 637.328 197.882Z" fill="#EAEAE9" fill-opacity="0.5"/>
<path d="M642.894 196.527C643.231 202.818 635.385 207.531 630.007 204.016C623.843 200.808 624.449 190.598 631.052 188.269C636.516 185.795 643.416 190.586 642.894 196.527ZM645.921 195.404C645.663 187.915 637.019 182.661 630.114 185.532C625.248 187.248 622.091 192.502 622.683 197.544C623.143 203.081 628.128 207.786 633.727 207.971C640.52 208.481 646.78 202.17 645.921 195.404Z" fill="#EAEAE9" fill-opacity="0.5"/>
<path d="M632.983 195.801C632.983 194.937 632.991 193.205 632.991 192.345C634.368 192.738 636.425 192.6 636.413 194.544C635.595 195.624 634.142 195.514 632.983 195.801ZM637.328 197.882C638.661 196.398 640.124 194.356 638.898 192.325C637.216 189.074 632.876 190.527 629.944 190.173C629.877 194.316 629.904 198.459 629.904 202.614C630.649 202.622 632.14 202.622 632.896 202.622C632.936 200.847 633.054 199.08 633.24 197.321C634.466 198.942 635.523 200.686 636.287 202.594C637.137 202.594 638.847 202.614 639.709 202.622C638.898 201.032 638.107 199.461 637.328 197.882Z" fill="#EAEAE9" fill-opacity="0.5"/>
</svg>
