<svg width="634" height="240" viewBox="0 0 634 240" fill="none" xmlns="http://www.w3.org/2000/svg">
<path d="M419.466 6.34476e-10C415.557 -2.55052e-05 411.686 0.768944 408.075 2.263C404.464 3.75706 401.182 5.94695 398.418 8.70763C395.654 11.4683 393.462 14.7457 391.966 18.3527C390.47 21.9598 389.7 25.8257 389.7 29.73C389.7 33.6342 390.47 37.5002 391.966 41.1072C393.462 44.7142 395.654 47.9916 398.418 50.7523C401.182 53.513 404.464 55.7029 408.075 57.1969C411.686 58.691 415.557 59.46 419.466 59.4599C427.36 59.4598 434.931 56.3274 440.513 50.752C446.095 45.1766 449.231 37.6147 449.231 29.73C449.231 21.8452 446.095 14.2834 440.513 8.70794C434.931 3.13251 427.36 0.000179914 419.466 6.34476e-10ZM115.666 8.34387C109.806 8.34387 102.069 8.38494 91.665 11.1227C82.4226 13.5548 72.1248 18.2595 63.7564 26.1752C53.6411 35.7433 49.158 46.7937 47.9585 50.0975C45.1088 57.9469 44.2135 63.9701 44.4537 70.2484C44.694 76.5267 46.2129 82.532 48.8049 88.5269C55.6345 104.323 66.0639 115.589 73.8411 128.4C78.7996 136.567 81.7726 144.784 79.1793 151.927C77.9808 155.228 76.2266 158.75 72.8392 161.617C69.7172 164.259 64.784 166.133 58.884 166.133C51.5556 166.133 43.5619 163.754 32.794 151.396C25.8511 143.428 21.3323 133.449 19.3342 126.046L0 179.304C8.87141 189.335 22.7955 196.8 47.4178 196.8C53.2781 196.8 62.1108 196.44 71.2178 194.576C78.7849 193.027 84.3075 191.001 89.7196 188.416C96.1103 185.364 98.8319 183.139 102.908 179.835C113.142 171.541 119.454 158.97 121.583 153.086C123.209 148.592 124.792 144.682 125.09 137.462C125.34 131.388 124.186 124.242 120.382 115.633C113.813 101.371 102.405 88.8998 94.5012 75.8273C89.557 67.6496 86.7073 58.8497 89.5445 51.0346C91.9811 44.3233 97.0717 38.0099 108.059 38.0099C122.113 38.0099 131.512 47.9072 136.432 56.3626C141.644 65.3192 143.473 74.8699 143.473 74.8699L161.588 24.8094C151.05 14.4667 137.083 8.34387 115.666 8.34387ZM504.059 13.4496C503.011 16.3468 499.412 23.7981 495.388 29.9735C490.019 38.2112 483.966 45.9434 473.242 54.2171C461.469 63.3007 447.267 68.4351 435.875 70.2743L430.18 86.0111H455.48L417.119 192.023H460.975L499.337 86.0111H523.137L533.925 56.1987H510.124L525.594 13.4496H504.059ZM361.237 54.2051C349.919 54.2051 343.543 58.3518 337.141 66.3593C331.511 73.4014 327.14 84.8101 327.14 84.8101L327.055 56.5339H296.839L247.811 192.023H291.669L319.555 114.959C319.555 114.959 328.017 88.576 344.333 88.576C349.468 88.576 352.91 90.818 355.52 92.9632C361.054 97.5127 361.934 102.968 361.934 102.968L378.013 58.533C378.013 58.533 372.224 54.2051 361.237 54.2051ZM595.101 54.2477C552.212 54.2477 525.091 85.2033 511.381 123.09C504.104 143.199 504.298 161.099 510.906 173.754C514.826 181.26 520.4 186.458 526.937 189.533C532.806 192.293 540.429 194.054 547.726 194.054C592.389 194.054 614.386 160.246 619.838 149.096C619.838 149.096 596.443 169.35 573.604 169.35C562.113 169.35 555.913 161.151 553.911 153.269C551.613 144.219 552.918 133.147 556.344 123.678C560.095 113.312 565.993 99.9817 572.507 89.8797C579.331 79.2959 586.69 71.6308 593.529 71.6308C600.924 71.6308 600.059 81.604 597.425 89.0019C589.923 110.077 571.134 126.047 558.536 132.414C578.715 132.414 593.631 129.947 605.654 124.205C622.805 116.014 629.178 102.198 631.561 95.6115C633.183 91.1299 637.305 78.3226 627.422 66.726C622.993 61.5289 614.075 54.2477 595.101 54.2477ZM166.59 56.5339L100.201 240H144.059L201.7 80.7081C221.634 80.7081 226.524 99.5988 216.053 128.536C211.152 142.08 205.467 153.801 196.88 164.887C188.648 175.513 178.417 185.188 165.861 192.456C203.376 192.456 227.626 179.202 243.568 158.759C254.667 144.524 259.021 131.941 260.254 128.536C262.534 122.235 272.38 97.8492 260.912 78.357C253.706 66.1085 237.758 56.5339 210.448 56.5339H166.59ZM386.016 62.7971L339.254 192.023H383.112L426.793 71.3095C419.002 71.3095 410.122 71.6753 394.881 66.6565C391.582 65.5705 388.634 64.2752 386.016 62.7971Z" fill="#EAEAE9" fill-opacity="0.5"/>
</svg>
