<svg width="371" height="60" viewBox="0 0 371 60" fill="none" xmlns="http://www.w3.org/2000/svg">
<path fill-rule="evenodd" clip-rule="evenodd" d="M216.119 12.8782L216.105 12.871C217.492 11.3426 219.031 9.72044 220.642 8.15596C218.684 7.19709 216.878 6.10123 215.129 5.04863C211.336 2.7632 207.825 0.643585 203.671 0.355202C200.449 0.153334 197.219 0.694052 194.228 1.92689C194.228 1.92689 192.61 -0.28645 187.632 0.427298C182.654 1.14105 167.323 7.60803 154.254 28.6744C142.441 47.7221 147.99 58.6374 156.479 58.522C165.676 58.3923 174.418 48.0826 177.38 39.5825C180.35 31.0824 176.846 28.7825 174.158 28.9988C171.189 29.2512 165.936 31.9187 163.046 37.8161C160.156 43.7136 160.156 47.34 160.156 47.34C161.334 46.0927 162.62 44.9464 163.993 43.9154C165.228 42.9421 166.594 42.1419 168.046 41.5363C168.385 40.0151 168.891 38.5299 169.549 37.124C170.596 34.9251 172.251 32.6397 174.295 32.1278C178.442 31.0824 176.455 38.7101 173.407 43.6847C171.767 46.3378 165.951 54.0233 160.958 54.0233C155.966 54.0233 155.005 49.1712 156.06 44.6148C157.108 40.0583 158.567 34.2979 165.871 23.8079C173.168 13.318 181.065 7.09615 185.638 4.4935C190.334 1.81154 192.241 2.9867 192.241 2.9867C192.241 2.9867 186.245 6.69962 182.835 11.1768C179.577 15.4593 177.626 20.268 179.143 22.6328C180.588 24.8822 185.66 24.9254 191.252 16.7858C196.771 8.74714 195.384 3.97441 195.384 3.97441C195.745 3.85184 196.121 3.76533 196.497 3.69323C199.192 3.33276 201.345 4.05371 204.682 5.7768C206.308 6.62032 207.905 7.69455 209.61 8.84808C211.568 10.1674 213.663 11.5877 216.119 12.8566L216.112 12.8638H216.119V12.8782ZM193.491 4.60885C193.491 4.60885 189.937 6.03634 185.804 10.6361C181.672 15.2285 179.259 20.405 181.043 21.7676C181.73 22.2867 183.304 22.3804 186.173 19.7778C188.817 17.4635 190.89 14.5581 192.234 11.2993C193.975 7.00964 193.556 4.90444 193.499 4.63769C193.491 4.61606 193.491 4.60885 193.491 4.60885Z" fill="white"/>
<path d="M223.322 15.4809C233.032 17.4203 241.536 11.3571 246.059 6.18779C247.706 4.34214 249.129 2.29462 250.285 0.0957031C248.226 2.25857 245.921 4.16911 243.421 5.79126L243.393 5.78406C239.181 8.50927 233.35 10.9749 227.751 10.4342C226.335 11.9122 224.818 13.6209 223.308 15.4809H223.322Z" fill="white"/>
<path fill-rule="evenodd" clip-rule="evenodd" d="M226.739 50.2887C225.93 51.5864 225.02 54.081 227.679 52.5309C230.915 50.642 235.532 43.5622 235.532 43.5622H237.62C235.713 46.5181 233.596 49.3299 231.277 51.9686C227.997 55.6382 223.987 58.969 221.169 58.6446C217.875 58.2553 218.908 53.8935 218.908 53.8935C218.908 53.8935 214.176 58.9402 210.925 58.5941C206.517 58.1039 207.861 52.6102 207.861 52.6102C207.861 52.6102 202.862 58.7744 199.481 58.5869C194.156 58.2769 195.5 51.7306 196.974 47.1453C197.768 44.6869 198.498 42.7547 198.498 42.7547C198.498 42.7547 197.971 42.8917 196.829 43.0647C196.237 43.1513 195.16 43.2089 195.16 43.2089C193.939 45.379 192.61 47.4914 191.172 49.5245C189.402 51.8965 181.874 60.0649 177.431 58.4283C173.327 56.9143 174.685 50.5843 177.077 45.5376C180.559 38.2055 190.363 27.6651 196.013 29.0493C201.872 30.484 196.143 41.2623 196.143 41.2623C196.143 41.2623 196.143 41.2984 196.208 41.3272C196.576 41.3921 196.959 41.3705 197.32 41.2623C198.05 41.1109 198.773 40.8947 199.466 40.6207C199.466 40.6207 205.354 28.1842 211.864 20.0446C218.373 11.905 231.363 -2.0888 236.457 1.29969C237.699 2.136 237.136 5.00541 235.46 8.48764C234.701 8.72555 233.935 8.93463 233.162 9.09324C234.094 7.53597 234.795 5.85614 235.25 4.09701C236.016 -0.106173 226.284 8.75439 219.327 18.2927C215.144 24.0387 211.43 30.1163 208.215 36.468C209.472 35.6966 210.672 34.8386 211.806 33.887C214.905 31.2915 217.86 28.5158 220.642 25.5743C223.308 22.7986 225.815 19.8715 228.134 16.8003C228.878 16.7642 229.622 16.6921 230.359 16.5696C227.816 20.0446 225.049 23.3466 222.065 26.4539C221.819 26.699 221.574 26.9513 221.321 27.2037C218.756 29.7919 216.054 32.5243 213.67 34.5502C211.344 36.5545 208.894 38.4074 206.33 40.0872C206.33 40.0872 200.217 52.4588 203.555 53.2519C205.499 53.7205 209.342 47.7582 209.342 47.7582C209.342 47.7582 214.342 40.0439 217.376 36.5545C221.48 31.8466 225.027 29.1358 228.553 29.0638C230.619 29.0277 231.84 31.2483 231.84 31.2483L232.808 29.727H238.79C238.79 29.727 227.621 48.8468 226.725 50.2815L226.739 50.2887ZM230.489 33.3823C230.561 33.2525 230.619 33.1155 230.67 32.9713C230.641 32.7478 230.54 32.5388 230.374 32.3874C230.215 32.2288 229.998 32.135 229.781 32.1206C228.856 32.0774 227.592 32.2576 224.29 35.9489C221.545 39.0057 219.182 42.3942 217.261 46.0351C215.368 49.5245 214.602 52.1272 215.686 52.7977C216.04 52.9779 216.444 53.0211 216.827 52.913C217.564 52.7328 218.395 52.0407 219.674 50.5555C220.151 50.0003 220.671 49.2578 221.263 48.407L221.27 48.3998C221.415 48.1907 221.567 47.9744 221.718 47.7582C223.9 44.7446 229.405 35.2856 230.489 33.3823ZM196.128 37.3908C196.685 35.9345 197.385 33.0795 195.919 31.9548C194.344 30.7652 190.363 33.5553 190.327 36.4391C190.291 39.323 193.144 40.7072 193.824 40.8874C194.214 40.9956 194.344 40.9812 194.532 40.664C195.138 39.6114 195.666 38.5227 196.121 37.4052V37.3908H196.128ZM193.101 42.7403C192.111 42.2789 191.187 41.6805 190.348 40.9668C189.51 40.2602 188.81 39.4023 188.275 38.4362C188.232 38.3569 188.181 38.4074 188.13 38.465C188.123 38.4794 188.109 38.4867 188.102 38.5011C188.037 38.566 187.791 38.8111 185.66 41.9617C183.514 45.1267 180.248 51.6513 183.218 52.7616C185.118 53.4754 188.282 50.1157 190.009 47.8951C191.187 46.3451 192.249 44.7085 193.195 43.0071C193.282 42.8268 193.195 42.7836 193.101 42.7403Z" fill="white"/>
<path d="M159.412 15.1709H153.726L150.511 20.4123H156.197L159.412 15.1709Z" fill="white"/>
<path fill-rule="evenodd" clip-rule="evenodd" d="M146.061 29.5179H148.127C148.127 29.5179 137.68 44.7445 131.778 44.0452C128.483 43.6559 129.458 39.5608 129.458 39.5608C129.458 39.5608 124.82 45.0257 120.572 43.9298C116.714 42.9349 119.207 36.4751 119.207 36.4751C119.142 36.504 118.896 36.7347 118.513 37.1096C116.324 39.2292 109.547 45.7971 104.569 43.8577C98.4571 41.4714 101.622 33.5336 102.785 31.1473C103.774 29.1358 104.865 27.1748 104.865 27.1748C104.865 27.1748 103.926 27.4415 103.341 27.5785C102.756 27.7155 101.867 27.8885 101.867 27.8885C101.867 27.8885 98.97 32.6469 97.1927 35.0188C95.4227 37.3907 87.8801 45.5448 83.4441 43.9226C79.0081 42.3005 80.1135 36.0354 82.5988 31.0319C86.6446 22.9644 96.2463 13.044 102.041 14.5364C107.842 16.0288 103.045 25.5887 103.045 25.5887C103.045 25.5887 104.208 25.7401 106.989 23.8223C108.138 23.0365 109.395 21.8613 110.732 20.6141C114.07 17.4995 117.921 13.8948 121.995 14.5148C124.683 14.9257 127.19 17.7086 123.765 22.9932C122.653 24.6731 120.825 26.2087 119.416 24.7091C118.542 23.7863 119.308 22.0776 120.225 20.9097C120.586 20.4338 121.056 20.0589 121.598 19.8066C122.14 19.5615 122.732 19.4461 123.325 19.4822C123.325 19.4822 124.271 17.2905 121.865 17.3337C119.915 17.3698 114.98 21.9478 112.199 26.5764C109.677 30.8372 105.819 38.0829 109.677 39.6618C113.239 41.1109 120.016 33.0001 123.151 28.7465C126.287 24.4928 133.432 14.8536 139.436 14.4715C141.502 14.3345 142.73 16.2379 142.73 16.2379L143.424 15.1204H149.413C149.413 15.1204 138.135 34.1681 137.254 35.5956C136.56 36.713 135.636 39.2508 138.193 37.8377C140.736 36.4247 146.061 29.5179 146.061 29.5179ZM132.478 33.3101C134.899 29.9505 141.581 18.2349 141.581 18.2349C141.553 18.0114 141.451 17.8023 141.285 17.6509C141.119 17.4995 140.917 17.3986 140.693 17.377C139.768 17.3337 138.236 17.6437 135.137 21.5153C132.038 25.3796 129.726 28.4581 128.006 31.6591C126.106 35.1486 125.275 37.6142 126.366 38.2847C126.72 38.465 127.125 38.5082 127.508 38.4001C128.216 38.2199 129.148 37.5061 130.419 36.0281C131.019 35.336 131.698 34.406 132.493 33.3173H132.478V33.3101ZM101.961 17.4563C100.386 16.2595 96.4052 19.0568 96.3691 21.9406C96.333 24.8245 99.9815 25.7185 100.451 25.7401C100.559 25.7689 100.668 25.7617 100.769 25.7185C100.87 25.6752 100.957 25.6031 101.007 25.5094C101.434 24.6659 101.817 23.8007 102.156 22.9139C102.712 21.4576 103.406 18.6026 101.947 17.4779L101.961 17.4563ZM99.5697 27.5569C98.486 27.218 97.4456 26.735 96.4847 26.1294C95.5455 25.5166 94.7797 24.6731 94.2595 23.6709C94.2089 23.5844 94.1583 23.6493 94.1078 23.707C94.1005 23.7142 94.0933 23.7214 94.0861 23.7358C94.0283 23.7935 93.7105 24.2261 91.5719 27.3911C89.4334 30.5561 86.2617 37.0375 89.2311 38.1478C91.1312 38.8615 94.3245 35.4946 96.0512 33.2669C97.3517 31.5294 98.5582 29.7198 99.6564 27.8453C99.7286 27.6578 99.6564 27.6074 99.548 27.5785L99.5697 27.5569Z" fill="white"/>
<path d="M142.795 60C138.374 56.9143 133.085 55.357 127.717 55.5661C126.265 55.6022 124.842 55.9915 123.563 56.6908C122.284 57.3901 121.186 58.3851 120.362 59.5891C118.072 55.5589 113.549 53.086 106.556 53.1437C100.632 53.2086 94.7362 54.6865 89.1876 56.078C84.1448 57.3397 79.3909 58.5292 75.1717 58.522C66.6465 58.522 60.4404 53.1221 60.6499 43.5333C61.0184 26.7278 75.0922 11.5949 85.6475 4.76748C91.6946 0.845469 96.7592 -0.308063 100.09 0.066835C102.51 0.333589 105.414 3.15253 103.579 7.30524C100.884 13.3829 97.1637 12.8782 97.301 9.97279C97.3588 9.21578 97.5972 8.4804 97.9873 7.83875C98.3847 7.18989 98.9194 6.64917 99.5624 6.25265C100.241 5.87775 101.007 5.68309 101.788 5.6903C102.344 5.2361 102.727 1.91249 98.3919 3.00834C94.0571 4.10419 88.7831 8.4011 83.8052 13.9453C78.8274 19.4894 71.0825 29.9721 69.1679 40.9739C68.272 46.0783 68.8717 55.3859 80.8358 55.2849C85.4524 55.2489 91.0661 53.8358 97.1059 52.3146C104.374 50.4906 112.263 48.5007 119.792 48.5584C124.589 48.5368 129.307 49.8417 133.425 52.3218C136.994 54.564 141.263 57.765 142.781 59.9784L142.795 60Z" fill="white"/>
<path d="M33.7671 38.2055H45.7746L45.3844 35.4442H36.8882V32.0845H42.6102V29.2872H36.8882V26.425H45.2183L45.6229 23.671H33.7743L33.7671 38.2055Z" fill="white"/>
<path d="M15.9868 38.2054H19.1079V31.7745H26.4627V38.1982H29.5982V23.7142H26.4699V28.9627H19.1079V23.707H16.0013L15.9868 38.2054Z" fill="white"/>
<path d="M0.222656 26.5403H5.01261V38.191H8.14093V26.5403H12.9309V23.707H0.222656V26.5403Z" fill="white"/>
<path d="M366.769 23.7503H370.223L364.537 33.3606V38.2343H361.409V33.4255L355.665 23.743H359.19L362.998 30.52L366.769 23.7503Z" fill="white"/>
<path d="M350.152 33.5553V23.7503L353.201 23.7286V38.2127H350.051L343.079 28.2346V38.2127H340.031V23.7286H343.274L350.152 33.5553Z" fill="white"/>
<path fill-rule="evenodd" clip-rule="evenodd" d="M337.285 38.2199H333.991L332.791 34.99H326.484L325.292 38.2055H322.019L327.734 23.7286H331.585L337.285 38.2199ZM329.663 26.5187L327.51 32.2648L331.794 32.2576L329.663 26.5187Z" fill="white"/>
<path fill-rule="evenodd" clip-rule="evenodd" d="M309.564 23.7215H316.948C317.909 23.6926 318.862 23.8945 319.729 24.3126C320.452 24.6731 321.044 25.2427 321.441 25.9492C321.824 26.6774 322.019 27.4849 322.019 28.3067C322.019 29.1286 321.817 29.9361 321.441 30.6643C321.044 31.3708 320.444 31.9476 319.729 32.3153C318.862 32.7406 317.909 32.9425 316.948 32.9137H312.699V38.2055H309.564V23.7215ZM312.721 30.1163H316.897C317.424 30.1524 317.945 29.9794 318.349 29.6405C318.689 29.28 318.869 28.8042 318.869 28.3067C318.869 27.8093 318.682 27.3407 318.349 26.973C317.937 26.6413 317.424 26.4755 316.897 26.5043H312.728V30.1163H312.721Z" fill="white"/>
<path d="M301.198 23.7214H305.402V38.2127H302.368V27.5641L297.961 37.982H295.866L291.502 27.8237V38.191H288.468V23.7214H292.68L296.978 33.8076L301.198 23.7214Z" fill="white"/>
<path fill-rule="evenodd" clip-rule="evenodd" d="M281.344 37.4845C280.123 38.1334 278.765 38.4578 277.385 38.4362L277.371 38.4434C275.991 38.465 274.632 38.1406 273.411 37.4917C272.27 36.8789 271.331 35.9561 270.68 34.8242C270.03 33.6346 269.691 32.3008 269.691 30.9382C269.691 29.5828 270.03 28.2418 270.68 27.0523C271.331 25.9204 272.277 24.9975 273.411 24.3847C274.64 23.7575 275.998 23.4258 277.371 23.4258C278.743 23.4258 280.102 23.7503 281.33 24.3847C282.486 24.9903 283.447 25.9204 284.104 27.0523C284.754 28.2418 285.087 29.5756 285.087 30.931C285.087 32.2864 284.747 33.6202 284.104 34.8098C283.454 35.9561 282.493 36.8789 281.344 37.4845ZM275.102 34.99C275.796 35.3937 276.583 35.5956 277.385 35.5812C278.187 35.5956 278.974 35.3937 279.668 34.99C280.333 34.6007 280.882 34.0311 281.243 33.3462C281.619 32.6036 281.814 31.7745 281.814 30.9454C281.814 30.1091 281.619 29.2872 281.243 28.5446C280.889 27.8525 280.34 27.283 279.668 26.8936C278.967 26.5043 278.187 26.3025 277.392 26.3025C276.598 26.3025 275.81 26.5043 275.116 26.8936C274.452 27.2685 273.903 27.8309 273.534 28.5086C273.151 29.2512 272.956 30.0803 272.978 30.9094C272.956 31.7457 273.151 32.5748 273.534 33.3102C273.888 34.0095 274.43 34.5863 275.102 34.99Z" fill="white"/>
<path d="M265.573 37.8882C264.518 38.2703 263.405 38.4578 262.293 38.4506L262.307 38.465C260.855 38.4938 259.417 38.155 258.131 37.4845C256.939 36.8717 255.942 35.9344 255.248 34.7809C254.555 33.6274 254.179 32.308 254.179 30.9598C254.179 29.6117 254.548 28.2851 255.248 27.1388C255.942 25.9852 256.946 25.0552 258.131 24.4352C259.41 23.7719 260.826 23.4403 262.256 23.4619C263.376 23.4403 264.489 23.6349 265.536 24.0242C266.49 24.3775 267.335 24.9615 268 25.7329L266.049 27.9174C265.551 27.3911 264.959 26.973 264.308 26.6702C263.687 26.4106 263.015 26.2736 262.343 26.2808C261.476 26.2664 260.624 26.4827 259.858 26.8936C259.135 27.283 258.536 27.8669 258.117 28.5735C257.676 29.2872 257.445 30.1163 257.452 30.9526C257.438 31.7817 257.654 32.5964 258.081 33.3102C258.5 34.0239 259.107 34.6007 259.836 34.99C260.609 35.4081 261.476 35.6244 262.358 35.6028C263.058 35.6172 263.759 35.4802 264.402 35.2063C265.052 34.9323 265.638 34.5286 266.122 34.0167L268.08 36.1652C267.4 36.9438 266.541 37.535 265.573 37.8882Z" fill="white"/>
</svg>
