<svg width="247" height="40" viewBox="0 0 247 40" fill="none" xmlns="http://www.w3.org/2000/svg">
<path fill-rule="evenodd" clip-rule="evenodd" d="M143.629 8.5855L143.619 8.58069C144.542 7.56174 145.566 6.4803 146.638 5.43732C145.335 4.79807 144.134 4.0675 142.971 3.36577C140.447 1.84215 138.111 0.429069 135.348 0.236814C133.204 0.102236 131.056 0.462714 129.066 1.28461C129.066 1.28461 127.989 -0.190954 124.678 0.284878C121.366 0.76071 111.167 5.07203 102.472 19.1163C94.6136 31.8147 98.3049 39.0916 103.952 39.0147C110.071 38.9282 115.887 32.0551 117.857 26.3883C119.833 20.7216 117.502 19.1884 115.714 19.3326C113.738 19.5008 110.244 21.2791 108.321 25.2108C106.399 29.1424 106.399 31.56 106.399 31.56C107.182 30.7285 108.038 29.9643 108.951 29.277C109.773 28.6281 110.681 28.0946 111.647 27.6909C111.873 26.6767 112.21 25.6866 112.647 24.7494C113.344 23.2834 114.445 21.7598 115.805 21.4185C118.564 20.7216 117.242 25.8068 115.214 29.1232C114.123 30.8919 110.254 36.0155 106.932 36.0155C103.611 36.0155 102.972 32.7808 103.674 29.7432C104.371 26.7056 105.341 22.8653 110.201 15.872C115.055 8.87869 120.308 4.73078 123.351 2.99568C126.475 1.2077 127.744 1.99114 127.744 1.99114C127.744 1.99114 123.755 4.46643 121.486 7.45119C119.318 10.3062 118.021 13.512 119.03 15.0885C119.991 16.5881 123.365 16.617 127.086 11.1906C130.758 5.83144 129.835 2.64962 129.835 2.64962C130.075 2.56791 130.325 2.51023 130.575 2.46217C132.368 2.22185 133.8 2.70249 136.021 3.85121C137.102 4.41356 138.164 5.12971 139.299 5.89873C140.601 6.7783 141.995 7.72516 143.629 8.57108L143.624 8.57588H143.629V8.5855ZM128.575 3.07258C128.575 3.07258 126.211 4.02424 123.462 7.09071C120.712 10.1524 119.107 13.6034 120.294 14.5118C120.751 14.8578 121.798 14.9203 123.707 13.1852C125.466 11.6424 126.845 9.70538 127.739 7.5329C128.898 4.6731 128.619 3.26964 128.58 3.0918C128.575 3.07738 128.575 3.07258 128.575 3.07258Z" fill="#F40009"/>
<path d="M148.421 10.3206C154.881 11.6135 160.538 7.57135 163.547 4.12517C164.643 2.89474 165.589 1.52973 166.358 0.0637817C164.989 1.5057 163.455 2.77939 161.792 3.86082L161.773 3.85602C158.971 5.67283 155.092 7.31661 151.367 6.95613C150.425 7.94144 149.416 9.08055 148.411 10.3206H148.421Z" fill="#F40009"/>
<path fill-rule="evenodd" clip-rule="evenodd" d="M150.695 33.5258C150.156 34.391 149.551 36.054 151.319 35.0206C153.473 33.7613 156.544 29.0415 156.544 29.0415H157.933C156.664 31.0121 155.256 32.8866 153.713 34.6457C151.531 37.0921 148.863 39.3127 146.989 39.0964C144.797 38.8369 145.485 35.929 145.485 35.929C145.485 35.929 142.336 39.2935 140.173 39.0628C137.242 38.7359 138.136 35.0735 138.136 35.0735C138.136 35.0735 134.81 39.1829 132.56 39.0579C129.018 38.8513 129.912 34.4871 130.892 31.4302C131.421 29.7912 131.906 28.5031 131.906 28.5031C131.906 28.5031 131.556 28.5945 130.796 28.7098C130.402 28.7675 129.686 28.8059 129.686 28.8059C128.874 30.2527 127.989 31.6609 127.033 33.0163C125.855 34.5976 120.847 40.0433 117.891 38.9522C115.161 37.9429 116.065 33.7229 117.656 30.3584C119.972 25.4703 126.494 18.4434 130.253 19.3662C134.151 20.3227 130.34 27.5082 130.34 27.5082C130.34 27.5082 130.34 27.5322 130.383 27.5515C130.628 27.5947 130.883 27.5803 131.123 27.5082C131.608 27.4073 132.089 27.2631 132.551 27.0805C132.551 27.0805 136.468 18.7894 140.798 13.363C145.129 7.93664 153.771 -1.39255 157.159 0.86645C157.986 1.42399 157.611 3.33693 156.496 5.65841C155.991 5.81702 155.482 5.95641 154.967 6.06215C155.588 5.02397 156.054 3.90408 156.357 2.73133C156.866 -0.0707946 150.392 5.83625 145.763 12.1951C142.98 16.0258 140.51 20.0776 138.371 24.312C139.207 23.7977 140.005 23.2257 140.76 22.5913C142.822 20.861 144.788 19.0105 146.638 17.0495C148.412 15.1991 150.079 13.2477 151.622 11.2002C152.117 11.1761 152.612 11.1281 153.103 11.0464C151.411 13.363 149.57 15.5644 147.585 17.6359C147.421 17.7993 147.258 17.9676 147.09 18.1358C145.384 19.8613 143.586 21.6829 142 23.0335C140.452 24.3696 138.823 25.6049 137.117 26.7248C137.117 26.7248 133.05 34.9725 135.271 35.5012C136.564 35.8136 139.121 31.8388 139.121 31.8388C139.121 31.8388 142.447 26.6959 144.466 24.3697C147.196 21.2311 149.556 19.4239 151.901 19.3758C153.276 19.3518 154.088 20.8322 154.088 20.8322L154.732 19.818H158.712C158.712 19.818 151.281 32.5645 150.685 33.521L150.695 33.5258ZM153.189 22.2548C153.237 22.1683 153.276 22.077 153.309 21.9809C153.29 21.8319 153.223 21.6925 153.112 21.5916C153.006 21.4858 152.862 21.4233 152.718 21.4137C152.103 21.3849 151.262 21.505 149.065 23.9659C147.239 26.0038 145.667 28.2628 144.389 30.69C143.129 33.0163 142.62 34.7514 143.341 35.1984C143.576 35.3186 143.846 35.3474 144.1 35.2753C144.591 35.1552 145.143 34.6938 145.994 33.7036C146.311 33.3335 146.657 32.8385 147.051 32.2713L147.056 32.2665C147.152 32.1271 147.253 31.983 147.354 31.8388C148.806 29.8297 152.468 23.5237 153.189 22.2548ZM130.33 24.9272C130.7 23.9563 131.166 22.053 130.191 21.3032C129.143 20.5101 126.494 22.3702 126.47 24.2927C126.446 26.2153 128.345 27.1381 128.797 27.2583C129.056 27.3304 129.143 27.3208 129.268 27.1093C129.671 26.4076 130.022 25.6818 130.325 24.9368V24.9272H130.33ZM128.316 28.4935C127.658 28.1859 127.042 27.787 126.485 27.3112C125.927 26.8401 125.461 26.2682 125.105 25.6241C125.077 25.5712 125.043 25.6049 125.009 25.6433C125.005 25.653 124.995 25.6578 124.99 25.6674C124.947 25.7106 124.783 25.874 123.366 27.9744C121.938 30.0844 119.766 34.4342 121.741 35.1744C123.005 35.6502 125.11 33.4104 126.259 31.9301C127.042 30.8967 127.749 29.8057 128.379 28.6714C128.436 28.5512 128.379 28.5224 128.316 28.4935Z" fill="#F40009"/>
<path d="M105.904 10.1139H102.121L99.9823 13.6082H103.765L105.904 10.1139Z" fill="#F40009"/>
<path fill-rule="evenodd" clip-rule="evenodd" d="M97.0217 19.6786H98.3963C98.3963 19.6786 91.4463 29.8297 87.5195 29.3635C85.3278 29.1039 85.9766 26.3739 85.9766 26.3739C85.9766 26.3739 82.8909 30.0171 80.0648 29.2866C77.4982 28.6233 79.1564 24.3168 79.1564 24.3168C79.1131 24.336 78.9497 24.4898 78.695 24.7397C77.2386 26.1528 72.7303 30.5314 69.4187 29.2385C65.3525 27.6476 67.4576 22.3558 68.2315 20.7649C68.8899 19.4239 69.6157 18.1165 69.6157 18.1165C69.6157 18.1165 68.9909 18.2944 68.6016 18.3857C68.2123 18.477 67.6211 18.5924 67.6211 18.5924C67.6211 18.5924 65.6937 21.7646 64.5113 23.3459C63.3338 24.9272 58.3159 30.3632 55.3648 29.2818C52.4137 28.2003 53.149 24.0236 54.8024 20.688C57.494 15.3096 63.8817 8.69604 67.7364 9.69096C71.5959 10.6859 68.4045 17.0591 68.4045 17.0591C68.4045 17.0591 69.1783 17.1601 71.0288 15.8816C71.793 15.3577 72.6293 14.5742 73.5185 13.7427C75.739 11.6664 78.3008 9.26319 81.0116 9.67654C82.7996 9.9505 84.4674 11.8058 82.1892 15.3288C81.449 16.4487 80.233 17.4725 79.2958 16.4728C78.7142 15.8575 79.2237 14.7184 79.8341 13.9398C80.0744 13.6226 80.3868 13.3726 80.7473 13.2044C81.1078 13.041 81.5019 12.9641 81.896 12.9881C81.896 12.9881 82.5257 11.527 80.9251 11.5558C79.6274 11.5799 76.3447 14.6319 74.4942 17.7176C72.8168 20.5582 70.2502 25.3886 72.8168 26.4412C75.1863 27.4073 79.6947 22.0001 81.7807 19.1643C83.8666 16.3286 88.6202 9.90244 92.6143 9.6477C93.9889 9.55638 94.806 10.8253 94.806 10.8253L95.2674 10.0803H99.2519C99.2519 10.0803 91.7491 22.7787 91.1627 23.7304C90.7013 24.4754 90.0861 26.1672 91.7875 25.2252C93.4794 24.2831 97.0217 19.6786 97.0217 19.6786ZM87.9857 22.2068C89.5958 19.967 94.0417 12.1566 94.0417 12.1566C94.0225 12.0076 93.9552 11.8682 93.8447 11.7673C93.7341 11.6664 93.5996 11.5991 93.4506 11.5847C92.8353 11.5558 91.8164 11.7625 89.7545 14.3435C87.6925 16.9198 86.1545 18.9721 85.0106 21.1061C83.7465 23.4324 83.1937 25.0762 83.9195 25.5232C84.155 25.6433 84.4242 25.6722 84.6789 25.6001C85.1499 25.4799 85.7699 25.0041 86.6159 24.0188C87.0148 23.5574 87.4666 22.9373 87.9953 22.2116H87.9857V22.2068ZM67.6835 11.6375C66.6357 10.8397 63.9874 12.7046 63.9634 14.6271C63.9394 16.5497 66.3666 17.1457 66.679 17.1601C66.7511 17.1793 66.8232 17.1745 66.8905 17.1457C66.9578 17.1168 67.0155 17.0688 67.0491 17.0063C67.3327 16.4439 67.5874 15.8672 67.8133 15.276C68.1834 14.3051 68.6448 12.4018 67.6739 11.652L67.6835 11.6375ZM66.0926 18.3713C65.3717 18.1454 64.6796 17.8234 64.0403 17.4196C63.4155 17.0111 62.906 16.4487 62.5599 15.7806C62.5263 15.723 62.4926 15.7662 62.459 15.8047C62.4542 15.8095 62.4494 15.8143 62.4446 15.8239C62.4061 15.8624 62.1947 16.1507 60.772 18.2607C59.3493 20.3707 57.2393 24.6917 59.2147 25.4319C60.4788 25.9077 62.6032 23.6631 63.7519 22.1779C64.6171 21.0196 65.4197 19.8132 66.1503 18.5635C66.1984 18.4386 66.1503 18.4049 66.0782 18.3857L66.0926 18.3713Z" fill="#F40009"/>
<path d="M94.8491 40C91.9076 37.9429 88.3893 36.9047 84.8182 37.0441C83.8521 37.0681 82.9053 37.3277 82.0545 37.7939C81.2038 38.2601 80.4732 38.9234 79.9253 39.726C78.4017 37.0393 75.3929 35.3907 70.7403 35.4291C66.7991 35.4724 62.8771 36.4577 59.1858 37.3853C55.8309 38.2264 52.6683 39.0195 49.8614 39.0147C44.1899 39.0147 40.0612 35.4147 40.2006 29.0222C40.4457 17.8186 49.8085 7.72996 56.8307 3.17832C60.8536 0.563646 64.2229 -0.205375 66.4386 0.0445567C68.0488 0.222393 69.9809 2.10169 68.7601 4.87016C66.9673 8.92194 64.492 8.5855 64.5834 6.64852C64.6218 6.14385 64.7804 5.6536 65.0399 5.22584C65.3043 4.79326 65.66 4.43278 66.0878 4.16843C66.5396 3.9185 67.049 3.78873 67.5681 3.79353C67.9382 3.49073 68.1929 1.27499 65.3091 2.00556C62.4253 2.73613 58.9166 5.60073 55.605 9.29684C52.2934 12.9929 47.141 19.9814 45.8673 27.316C45.2713 30.7189 45.6702 36.9239 53.6296 36.8566C56.7009 36.8326 60.4354 35.8905 64.4536 34.8764C69.2888 33.6604 74.5374 32.3338 79.5456 32.3723C82.7371 32.3579 85.8756 33.2278 88.6153 34.8812C90.9896 36.376 93.8302 38.51 94.8395 39.9856L94.8491 40Z" fill="#F40009"/>
<path d="M22.3162 25.4703H30.3044L30.0448 23.6295H24.3925V21.3897H28.1992V19.5248H24.3925V17.6167H29.9343L30.2034 15.7806H22.321L22.3162 25.4703Z" fill="#F40009"/>
<path d="M10.4874 25.4703H12.5638V21.183H17.4567V25.4655H19.5427V15.8095H17.4615V19.3085H12.5638V15.8047H10.497L10.4874 25.4703Z" fill="#F40009"/>
<path d="M0 17.6936H3.1866V25.4607H5.26777V17.6936H8.45441V15.8047H0V17.6936Z" fill="#F40009"/>
<path d="M243.852 15.8335H246.149L242.366 22.2404V25.4895H240.285V22.2837L236.464 15.8287H238.81L241.343 20.3467L243.852 15.8335Z" fill="#F40009"/>
<path d="M232.797 22.3702V15.8335L234.825 15.8191V25.4751H232.73L228.092 18.8231V25.4751H226.063V15.8191H228.221L232.797 22.3702Z" fill="#F40009"/>
<path fill-rule="evenodd" clip-rule="evenodd" d="M224.237 25.4799H222.045L221.247 23.3267H217.051L216.258 25.4703H214.081L217.883 15.8191H220.445L224.237 25.4799ZM219.166 17.6792L217.734 21.5099L220.584 21.5051L219.166 17.6792Z" fill="#F40009"/>
<path fill-rule="evenodd" clip-rule="evenodd" d="M205.795 15.8143H210.707C211.346 15.7951 211.981 15.9296 212.557 16.2084C213.038 16.4487 213.432 16.8284 213.697 17.2995C213.951 17.7849 214.081 18.3232 214.081 18.8711C214.081 19.4191 213.947 19.9574 213.697 20.4428C213.432 20.9139 213.033 21.2984 212.557 21.5435C211.981 21.8271 211.346 21.9616 210.707 21.9424H207.881V25.4703H205.795V15.8143ZM207.895 20.0775H210.673C211.024 20.1016 211.37 19.9862 211.639 19.7603C211.865 19.52 211.986 19.2028 211.986 18.8711C211.986 18.5395 211.861 18.2271 211.639 17.982C211.366 17.7609 211.024 17.6503 210.673 17.6696H207.9V20.0775H207.895Z" fill="#F40009"/>
<path d="M200.229 15.8143H203.027V25.4751H201.008V18.3761L198.076 25.3213H196.682L193.779 18.5491V25.4607H191.76V15.8143H194.562L197.422 22.5384L200.229 15.8143Z" fill="#F40009"/>
<path fill-rule="evenodd" clip-rule="evenodd" d="M187.021 24.9896C186.209 25.4222 185.305 25.6385 184.387 25.6241L184.378 25.6289C183.46 25.6433 182.556 25.427 181.744 24.9945C180.984 24.5859 180.359 23.9707 179.927 23.2161C179.494 22.423 179.268 21.5339 179.268 20.6255C179.268 19.7219 179.494 18.8279 179.927 18.0348C180.359 17.2802 180.989 16.665 181.744 16.2565C182.561 15.8383 183.464 15.6172 184.378 15.6172C185.291 15.6172 186.194 15.8335 187.012 16.2565C187.781 16.6602 188.42 17.2802 188.857 18.0348C189.29 18.8279 189.511 19.717 189.511 20.6206C189.511 21.5242 189.285 22.4134 188.857 23.2065C188.425 23.9707 187.785 24.5859 187.021 24.9896ZM182.868 23.3266C183.33 23.5958 183.854 23.7304 184.387 23.7208C184.921 23.7304 185.445 23.5958 185.906 23.3266C186.348 23.0671 186.714 22.6874 186.954 22.2308C187.204 21.7357 187.334 21.183 187.334 20.6303C187.334 20.0727 187.204 19.5248 186.954 19.0297C186.718 18.5683 186.353 18.1886 185.906 17.9291C185.44 17.6695 184.921 17.5349 184.392 17.5349C183.863 17.5349 183.339 17.6695 182.878 17.9291C182.436 18.179 182.071 18.5539 181.825 19.0057C181.571 19.5008 181.441 20.0535 181.455 20.6062C181.441 21.1638 181.571 21.7165 181.825 22.2068C182.061 22.673 182.421 23.0575 182.868 23.3266Z" fill="#F40009"/>
<path d="M176.529 25.2588C175.827 25.5136 175.087 25.6385 174.347 25.6337L174.356 25.6434C173.39 25.6626 172.434 25.4367 171.578 24.9897C170.785 24.5811 170.122 23.9563 169.661 23.1873C169.199 22.4183 168.949 21.5387 168.949 20.6399C168.949 19.7411 169.194 18.8567 169.661 18.0925C170.122 17.3235 170.79 16.7035 171.578 16.2901C172.429 15.8479 173.371 15.6269 174.323 15.6413C175.068 15.6269 175.808 15.7566 176.505 16.0162C177.139 16.2517 177.702 16.641 178.144 17.1553L176.846 18.6116C176.514 18.2608 176.12 17.982 175.688 17.7801C175.274 17.6071 174.827 17.5158 174.38 17.5206C173.804 17.511 173.237 17.6551 172.727 17.9291C172.246 18.1887 171.848 18.578 171.569 19.049C171.276 19.5248 171.122 20.0776 171.127 20.6351C171.117 21.1878 171.261 21.731 171.545 22.2068C171.823 22.6826 172.227 23.0671 172.713 23.3267C173.227 23.6054 173.804 23.7496 174.39 23.7352C174.856 23.7448 175.322 23.6535 175.75 23.4709C176.183 23.2882 176.572 23.0191 176.894 22.6778L178.197 24.1101C177.745 24.6292 177.173 25.0233 176.529 25.2588Z" fill="#F40009"/>
</svg>
